# xmcd
#
# Track frame offsets:
#	150
#	15382
#	27322
#	42410
#	57615
#	71205
#	83795
#	101767
#	114240
#	129125
#
# Disc length: 1894 seconds
#
# Revision: 4
# Processed by: cddbd v1.5.2PL0 Copyright (c) Steve Scherf et al.
# Submitted via: EZCDAudioConverter 2.0.5.1
#
DISCID=8007640a
DTITLE=Various Artist - Today's Top 10 Country
DYEAR=1995
DGENRE=country
TTITLE0=RandyTravis - Before You Kill Us All
TTITLE1=Terry Murrah - It's ALittle Too Late
TTITLE2=Gibson Louvin - Queen Of Memphis
TTITLE3=Harrison,Mensy - I Just Wanted You To Know
TTITLE4=DiamondRio - In A Week Or Two
TTITLE5=SammyKershaw - Haunted Heart
TTITLE6=Vince Gill - I Still Believe In You
TTITLE7=Pam Tillis - When You Walk In The Room
TTITLE8=The Mavericks - There Goes My Heart
TTITLE9=Tracy Byrd - Lifestyles Of The Not So Rich And Famous
EXTD=
EXTT0=
EXTT1=
EXTT2=
EXTT3=
EXTT4=
EXTT5=
EXTT6=
EXTT7=
EXTT8=
EXTT9=
PLAYORDER=
